# xmcd CD database file
#
# Track frame offsets:
#	150
#	27357
#	45412
#	70937
#	84665
#	102930
#	114247
#	127642
#	145167
#	158280
#
# Disc length: 2250 seconds
#
# Revision: 0
# Processed by: cddbd v1.5.1PL0 Copyright (c) Steve Scherf et al.
# Submitted via: CDex 1.51
#
DISCID=6f08c80a
DTITLE=Nashville City - Can't Get Enough
DYEAR=1900
DGENRE=Country
TTITLE0=Way To Albam
TTITLE1=Can't Get Enough
TTITLE2=Country Lady
TTITLE3=And Then I Saw Her
TTITLE4=Christine
TTITLE5=I'll Never Be A Cajun
TTITLE6=Vacation Song
TTITLE7=Truckin' Cowboy
TTITLE8=The Devil Stuck On You
TTITLE9=You Wanna Stay In Front
EXTD=
EXTT0=
EXTT1=
EXTT2=
EXTT3=
EXTT4=
EXTT5=
EXTT6=
EXTT7=
EXTT8=
EXTT9=
PLAYORDER=
